<svg width="22" height="22" viewBox="0 0 22 22" fill="none" xmlns="http://www.w3.org/2000/svg">
<path d="M3.85714 15.2857C2.28179 15.2857 1 16.5675 1 18.1428C1 19.7182 2.28179 21 3.85714 21C5.4325 21 6.71429 19.7182 6.71429 18.1428C6.71429 16.5675 5.4325 15.2857 3.85714 15.2857ZM3.85714 20.2857C2.67536 20.2857 1.71429 19.3246 1.71429 18.1428C1.71429 16.9611 2.67536 16 3.85714 16C5.03893 16 6 16.9611 6 18.1428C6 19.3246 5.03893 20.2857 3.85714 20.2857Z" fill="#8E8E93"/>
<path d="M11 15.2857C9.42464 15.2857 8.14285 16.5675 8.14285 18.1428C8.14285 19.7182 9.42464 21 11 21C12.5754 21 13.8571 19.7182 13.8571 18.1428C13.8571 16.5675 12.5754 15.2857 11 15.2857ZM11 20.2857C9.81821 20.2857 8.85714 19.3246 8.85714 18.1428C8.85714 16.9611 9.81821 16 11 16C12.1818 16 13.1429 16.9611 13.1429 18.1428C13.1429 19.3246 12.1818 20.2857 11 20.2857Z" fill="#8E8E93"/>
<path d="M18.1428 15.2857C16.5675 15.2857 15.2857 16.5675 15.2857 18.1428C15.2857 19.7182 16.5675 21 18.1428 21C19.7182 21 21 19.7182 21 18.1428C21 16.5675 19.7182 15.2857 18.1428 15.2857ZM18.1428 20.2857C16.9611 20.2857 16 19.3246 16 18.1428C16 16.9611 16.9611 16 18.1428 16C19.3246 16 20.2857 16.9611 20.2857 18.1428C20.2857 19.3246 19.3246 20.2857 18.1428 20.2857Z" fill="#8E8E93"/>
<path d="M3.85714 8.14288C2.28179 8.14288 1 9.42467 1 11C1 12.5754 2.28179 13.8572 3.85714 13.8572C5.4325 13.8572 6.71429 12.5754 6.71429 11C6.71429 9.42467 5.4325 8.14288 3.85714 8.14288ZM3.85714 13.1429C2.67536 13.1429 1.71429 12.1818 1.71429 11C1.71429 9.81824 2.67536 8.85717 3.85714 8.85717C5.03893 8.85717 6 9.81824 6 11C6 12.1818 5.03893 13.1429 3.85714 13.1429Z" fill="#8E8E93"/>
<path d="M11 8.14288C9.42464 8.14288 8.14285 9.42467 8.14285 11C8.14285 12.5754 9.42464 13.8572 11 13.8572C12.5754 13.8572 13.8571 12.5754 13.8571 11C13.8571 9.42467 12.5754 8.14288 11 8.14288ZM11 13.1429C9.81821 13.1429 8.85714 12.1818 8.85714 11C8.85714 9.81824 9.81821 8.85717 11 8.85717C12.1818 8.85717 13.1429 9.81824 13.1429 11C13.1429 12.1818 12.1818 13.1429 11 13.1429Z" fill="#8E8E93"/>
<path d="M18.1428 8.14288C16.5675 8.14288 15.2857 9.42467 15.2857 11C15.2857 12.5754 16.5675 13.8572 18.1428 13.8572C19.7182 13.8572 21 12.5754 21 11C21 9.42467 19.7182 8.14288 18.1428 8.14288ZM18.1428 13.1429C16.9611 13.1429 16 12.1818 16 11C16 9.81824 16.9611 8.85717 18.1428 8.85717C19.3246 8.85717 20.2857 9.81824 20.2857 11C20.2857 12.1818 19.3246 13.1429 18.1428 13.1429Z" fill="#8E8E93"/>
<path d="M3.85714 1C2.28179 1 1 2.28179 1 3.85714C1 5.4325 2.28179 6.71429 3.85714 6.71429C5.4325 6.71429 6.71429 5.4325 6.71429 3.85714C6.71429 2.28179 5.4325 1 3.85714 1ZM3.85714 6C2.67536 6 1.71429 5.03893 1.71429 3.85714C1.71429 2.67536 2.67536 1.71429 3.85714 1.71429C5.03893 1.71429 6 2.67536 6 3.85714C6 5.03893 5.03893 6 3.85714 6Z" fill="#8E8E93"/>
<path d="M11 1C9.42464 1 8.14286 2.28179 8.14286 3.85714C8.14286 5.4325 9.42464 6.71429 11 6.71429C12.5754 6.71429 13.8571 5.4325 13.8571 3.85714C13.8571 2.28179 12.5754 1 11 1ZM11 6C9.81821 6 8.85714 5.03893 8.85714 3.85714C8.85714 2.67536 9.81821 1.71429 11 1.71429C12.1818 1.71429 13.1429 2.67536 13.1429 3.85714C13.1429 5.03893 12.1818 6 11 6Z" fill="#8E8E93"/>
<path d="M18.1429 6.71429C19.7182 6.71429 21 5.4325 21 3.85714C21 2.28179 19.7182 1 18.1429 1C16.5675 1 15.2857 2.28179 15.2857 3.85714C15.2857 5.4325 16.5675 6.71429 18.1429 6.71429ZM18.1429 1.71429C19.3246 1.71429 20.2857 2.67536 20.2857 3.85714C20.2857 5.03893 19.3246 6 18.1429 6C16.9611 6 16 5.03893 16 3.85714C16 2.67536 16.9611 1.71429 18.1429 1.71429Z" fill="#8E8E93"/>
<path fill-rule="evenodd" clip-rule="evenodd" d="M0.75 18.1428C0.75 16.4294 2.14371 15.0357 3.85714 15.0357C5.57057 15.0357 6.96429 16.4294 6.96429 18.1428C6.96429 19.8563 5.57057 21.25 3.85714 21.25C2.14371 21.25 0.75 19.8563 0.75 18.1428ZM1.96429 18.1428C1.96429 19.1866 2.81343 20.0357 3.85714 20.0357C4.90086 20.0357 5.75 19.1866 5.75 18.1428C5.75 17.0991 4.90086 16.25 3.85714 16.25C2.81343 16.25 1.96429 17.0991 1.96429 18.1428ZM7.89285 18.1428C7.89285 16.4294 9.28657 15.0357 11 15.0357C12.7134 15.0357 14.1071 16.4294 14.1071 18.1428C14.1071 19.8563 12.7134 21.25 11 21.25C9.28657 21.25 7.89285 19.8563 7.89285 18.1428ZM9.10714 18.1428C9.10714 19.1866 9.95628 20.0357 11 20.0357C12.0437 20.0357 12.8929 19.1866 12.8929 18.1428C12.8929 17.0991 12.0437 16.25 11 16.25C9.95628 16.25 9.10714 17.0991 9.10714 18.1428ZM15.0357 18.1428C15.0357 16.4294 16.4294 15.0357 18.1428 15.0357C19.8563 15.0357 21.25 16.4294 21.25 18.1428C21.25 19.8563 19.8563 21.25 18.1428 21.25C16.4294 21.25 15.0357 19.8563 15.0357 18.1428ZM16.25 18.1428C16.25 19.1866 17.0991 20.0357 18.1428 20.0357C19.1866 20.0357 20.0357 19.1866 20.0357 18.1428C20.0357 17.0991 19.1866 16.25 18.1428 16.25C17.0991 16.25 16.25 17.0991 16.25 18.1428ZM0.75 11C0.75 9.2866 2.14371 7.89288 3.85714 7.89288C5.57057 7.89288 6.96429 9.2866 6.96429 11C6.96429 12.7135 5.57057 14.1072 3.85714 14.1072C2.14371 14.1072 0.75 12.7135 0.75 11ZM1.96429 11C1.96429 12.0437 2.81343 12.8929 3.85714 12.8929C4.90086 12.8929 5.75 12.0437 5.75 11C5.75 9.95631 4.90086 9.10717 3.85714 9.10717C2.81343 9.10717 1.96429 9.95631 1.96429 11ZM7.89285 11C7.89285 9.2866 9.28657 7.89288 11 7.89288C12.7134 7.89288 14.1071 9.2866 14.1071 11C14.1071 12.7135 12.7134 14.1072 11 14.1072C9.28657 14.1072 7.89285 12.7135 7.89285 11ZM9.10714 11C9.10714 12.0437 9.95628 12.8929 11 12.8929C12.0437 12.8929 12.8929 12.0437 12.8929 11C12.8929 9.95631 12.0437 9.10717 11 9.10717C9.95628 9.10717 9.10714 9.95631 9.10714 11ZM15.0357 11C15.0357 9.2866 16.4294 7.89288 18.1428 7.89288C19.8563 7.89288 21.25 9.2866 21.25 11C21.25 12.7135 19.8563 14.1072 18.1428 14.1072C16.4294 14.1072 15.0357 12.7135 15.0357 11ZM16.25 11C16.25 12.0437 17.0991 12.8929 18.1428 12.8929C19.1866 12.8929 20.0357 12.0437 20.0357 11C20.0357 9.95631 19.1866 9.10717 18.1428 9.10717C17.0991 9.10717 16.25 9.95631 16.25 11ZM0.75 3.85714C0.75 2.14371 2.14371 0.75 3.85714 0.75C5.57057 0.75 6.96429 2.14371 6.96429 3.85714C6.96429 5.57057 5.57057 6.96429 3.85714 6.96429C2.14371 6.96429 0.75 5.57057 0.75 3.85714ZM1.96429 3.85714C1.96429 4.90086 2.81343 5.75 3.85714 5.75C4.90086 5.75 5.75 4.90086 5.75 3.85714C5.75 2.81343 4.90086 1.96429 3.85714 1.96429C2.81343 1.96429 1.96429 2.81343 1.96429 3.85714ZM7.89286 3.85714C7.89286 2.14371 9.28657 0.75 11 0.75C12.7134 0.75 14.1071 2.14371 14.1071 3.85714C14.1071 5.57057 12.7134 6.96429 11 6.96429C9.28657 6.96429 7.89286 5.57057 7.89286 3.85714ZM9.10714 3.85714C9.10714 4.90086 9.95629 5.75 11 5.75C12.0437 5.75 12.8929 4.90086 12.8929 3.85714C12.8929 2.81343 12.0437 1.96429 11 1.96429C9.95629 1.96429 9.10714 2.81343 9.10714 3.85714ZM21.25 3.85714C21.25 5.57057 19.8563 6.96429 18.1429 6.96429C16.4294 6.96429 15.0357 5.57057 15.0357 3.85714C15.0357 2.14371 16.4294 0.75 18.1429 0.75C19.8563 0.75 21.25 2.14371 21.25 3.85714ZM20.0357 3.85714C20.0357 2.81343 19.1866 1.96429 18.1429 1.96429C17.0991 1.96429 16.25 2.81343 16.25 3.85714C16.25 4.90086 17.0991 5.75 18.1429 5.75C19.1866 5.75 20.0357 4.90086 20.0357 3.85714ZM1 3.85714C1 2.28179 2.28179 1 3.85714 1C5.4325 1 6.71429 2.28179 6.71429 3.85714C6.71429 5.4325 5.4325 6.71429 3.85714 6.71429C2.28179 6.71429 1 5.4325 1 3.85714ZM1.71429 3.85714C1.71429 5.03893 2.67536 6 3.85714 6C5.03893 6 6 5.03893 6 3.85714C6 2.67536 5.03893 1.71429 3.85714 1.71429C2.67536 1.71429 1.71429 2.67536 1.71429 3.85714ZM3.85714 8.14288C2.28179 8.14288 1 9.42467 1 11C1 12.5754 2.28179 13.8572 3.85714 13.8572C5.4325 13.8572 6.71429 12.5754 6.71429 11C6.71429 9.42467 5.4325 8.14288 3.85714 8.14288ZM3.85714 13.1429C2.67536 13.1429 1.71429 12.1818 1.71429 11C1.71429 9.81824 2.67536 8.85717 3.85714 8.85717C5.03893 8.85717 6 9.81824 6 11C6 12.1818 5.03893 13.1429 3.85714 13.1429ZM3.85714 15.2857C2.28179 15.2857 1 16.5675 1 18.1428C1 19.7182 2.28179 21 3.85714 21C5.4325 21 6.71429 19.7182 6.71429 18.1428C6.71429 16.5675 5.4325 15.2857 3.85714 15.2857ZM3.85714 20.2857C2.67536 20.2857 1.71429 19.3246 1.71429 18.1428C1.71429 16.9611 2.67536 16 3.85714 16C5.03893 16 6 16.9611 6 18.1428C6 19.3246 5.03893 20.2857 3.85714 20.2857ZM11 15.2857C9.42464 15.2857 8.14285 16.5675 8.14285 18.1428C8.14285 19.7182 9.42464 21 11 21C12.5754 21 13.8571 19.7182 13.8571 18.1428C13.8571 16.5675 12.5754 15.2857 11 15.2857ZM11 20.2857C9.81821 20.2857 8.85714 19.3246 8.85714 18.1428C8.85714 16.9611 9.81821 16 11 16C12.1818 16 13.1429 16.9611 13.1429 18.1428C13.1429 19.3246 12.1818 20.2857 11 20.2857ZM15.2857 18.1428C15.2857 16.5675 16.5675 15.2857 18.1428 15.2857C19.7182 15.2857 21 16.5675 21 18.1428C21 19.7182 19.7182 21 18.1428 21C16.5675 21 15.2857 19.7182 15.2857 18.1428ZM16 18.1428C16 19.3246 16.9611 20.2857 18.1428 20.2857C19.3246 20.2857 20.2857 19.3246 20.2857 18.1428C20.2857 16.9611 19.3246 16 18.1428 16C16.9611 16 16 16.9611 16 18.1428ZM8.14285 11C8.14285 9.42467 9.42464 8.14288 11 8.14288C12.5754 8.14288 13.8571 9.42467 13.8571 11C13.8571 12.5754 12.5754 13.8572 11 13.8572C9.42464 13.8572 8.14285 12.5754 8.14285 11ZM8.85714 11C8.85714 12.1818 9.81821 13.1429 11 13.1429C12.1818 13.1429 13.1429 12.1818 13.1429 11C13.1429 9.81824 12.1818 8.85717 11 8.85717C9.81821 8.85717 8.85714 9.81824 8.85714 11ZM18.1428 8.14288C16.5675 8.14288 15.2857 9.42467 15.2857 11C15.2857 12.5754 16.5675 13.8572 18.1428 13.8572C19.7182 13.8572 21 12.5754 21 11C21 9.42467 19.7182 8.14288 18.1428 8.14288ZM18.1428 13.1429C16.9611 13.1429 16 12.1818 16 11C16 9.81824 16.9611 8.85717 18.1428 8.85717C19.3246 8.85717 20.2857 9.81824 20.2857 11C20.2857 12.1818 19.3246 13.1429 18.1428 13.1429ZM11 1C9.42464 1 8.14286 2.28179 8.14286 3.85714C8.14286 5.4325 9.42464 6.71429 11 6.71429C12.5754 6.71429 13.8571 5.4325 13.8571 3.85714C13.8571 2.28179 12.5754 1 11 1ZM11 6C9.81821 6 8.85714 5.03893 8.85714 3.85714C8.85714 2.67536 9.81821 1.71429 11 1.71429C12.1818 1.71429 13.1429 2.67536 13.1429 3.85714C13.1429 5.03893 12.1818 6 11 6ZM21 3.85714C21 5.4325 19.7182 6.71429 18.1429 6.71429C16.5675 6.71429 15.2857 5.4325 15.2857 3.85714C15.2857 2.28179 16.5675 1 18.1429 1C19.7182 1 21 2.28179 21 3.85714ZM20.2857 3.85714C20.2857 2.67536 19.3246 1.71429 18.1429 1.71429C16.9611 1.71429 16 2.67536 16 3.85714C16 5.03893 16.9611 6 18.1429 6C19.3246 6 20.2857 5.03893 20.2857 3.85714Z" fill="#8E8E93"/>
</svg>
