<svg width="22" height="26" viewBox="0 0 22 26" fill="none" xmlns="http://www.w3.org/2000/svg">
<path d="M10.92 0C9.77641 0 8.84 0.936406 8.84 2.08C8.84 2.34812 8.89281 2.60812 8.98625 2.84375C6.06125 3.60344 4.16 6.14453 4.16 9.36C4.16 13.4327 3.16062 15.2872 2.21 16.3312C1.73469 16.8533 1.26547 17.1702 0.86125 17.4688C0.658125 17.617 0.473281 17.7653 0.30875 17.9562C0.144219 18.1472 0 18.4194 0 18.72C0 19.435 0.43875 20.0423 1.05625 20.4425C1.67375 20.8427 2.48422 21.1006 3.46125 21.3037C4.72875 21.5658 6.29281 21.7039 8.01125 21.775C7.88125 22.1203 7.8 22.492 7.8 22.88C7.8 24.5964 9.20359 26 10.92 26C12.6364 26 14.04 24.5964 14.04 22.88C14.04 22.49 13.9608 22.1183 13.8287 21.775C15.5472 21.7039 17.1112 21.5658 18.3787 21.3037C19.3558 21.1006 20.1662 20.8427 20.7837 20.4425C21.4012 20.0423 21.84 19.435 21.84 18.72C21.84 18.4194 21.6958 18.1472 21.5312 17.9562C21.3667 17.7653 21.1819 17.617 20.9787 17.4688C20.5745 17.1702 20.1053 16.8533 19.63 16.3312C18.6794 15.2872 17.68 13.4327 17.68 9.36C17.68 6.14656 15.7747 3.6075 12.8537 2.84375C12.9472 2.60812 13 2.34812 13 2.08C13 0.936406 12.0636 0 10.92 0ZM10.92 1.04C11.5009 1.04 11.96 1.49906 11.96 2.08C11.96 2.66094 11.5009 3.12 10.92 3.12C10.3391 3.12 9.88 2.66094 9.88 2.08C9.88 1.49906 10.3391 1.04 10.92 1.04ZM12.1387 3.7375C14.9114 4.23109 16.64 6.37406 16.64 9.36C16.64 13.6073 17.7206 15.7889 18.85 17.03C19.4147 17.6495 19.9855 18.0375 20.3612 18.3137C20.5481 18.4519 20.6883 18.5677 20.7512 18.6388C20.8142 18.7098 20.8 18.7037 20.8 18.72C20.8 19.045 20.6497 19.2827 20.215 19.565C19.7803 19.8473 19.0734 20.1094 18.1675 20.2962C16.3556 20.672 13.7759 20.8 10.92 20.8C8.06406 20.8 5.48438 20.672 3.6725 20.2962C2.76656 20.1094 2.05969 19.8473 1.625 19.565C1.19031 19.2827 1.04 19.045 1.04 18.72C1.04 18.7037 1.02578 18.7098 1.08875 18.6388C1.15172 18.5677 1.29188 18.4519 1.47875 18.3137C1.85453 18.0375 2.42531 17.6495 2.99 17.03C4.11937 15.7889 5.2 13.6073 5.2 9.36C5.2 6.37609 6.93062 4.24937 9.70125 3.75375C10.0466 4.00766 10.463 4.16 10.92 4.16C11.3811 4.16 11.7934 3.99547 12.1387 3.7375ZM9.1325 21.8075C9.71547 21.8197 10.3086 21.84 10.92 21.84C11.5314 21.84 12.1245 21.8197 12.7075 21.8075C12.8923 22.1203 13 22.49 13 22.88C13 24.0358 12.0758 24.96 10.92 24.96C9.76422 24.96 8.84 24.0358 8.84 22.88C8.84 22.4859 8.94359 22.1203 9.1325 21.8075Z" fill="#8E8E93"/>
</svg>
