<svg width="26" height="26" viewBox="0 0 26 26" fill="none" xmlns="http://www.w3.org/2000/svg">
<path d="M13 0C5.82699 0 1.13043e-07 5.82699 0 13C0 20.173 5.82699 26 13 26C20.173 26 26 20.173 26 13C26 5.82699 20.173 0 13 0ZM13 1.13043C19.5621 1.13043 24.8696 6.43793 24.8696 13C24.8696 16.2402 23.5718 19.1711 21.4716 21.3116C20.4374 20.5523 19.1767 20.1713 18.109 19.7914C17.5077 19.5775 16.9671 19.3654 16.5723 19.1291C16.1943 18.9027 15.9844 18.6701 15.8736 18.4027C15.8216 17.7545 15.8322 17.2326 15.836 16.6165C15.9045 16.5483 15.9923 16.5004 16.0623 16.4178C16.2274 16.223 16.3954 15.9863 16.5558 15.7201C16.8308 15.2636 17.0309 14.7053 17.1431 14.1393C17.3143 14.052 17.4973 14.0331 17.6365 13.8556C17.8937 13.5278 18.0673 13.0665 18.1444 12.4237C18.2127 11.8562 18.0298 11.4659 17.7944 11.1664C18.0477 10.3384 18.3613 9.02173 18.2548 7.65914C18.1962 6.90949 18.0075 6.15491 17.5538 5.52743C17.1205 4.92837 16.4172 4.49775 15.517 4.3418C14.9452 3.69266 14.037 3.38689 12.9514 3.38689H12.9459H12.9415C10.5095 3.43154 8.94036 4.4381 8.26851 5.97342C7.62965 7.43336 7.76699 9.25089 8.22546 11.1432C7.97901 11.4428 7.78595 11.8405 7.85564 12.4237C7.93299 13.0663 8.10648 13.5278 8.36345 13.8556C8.50263 14.0331 8.68559 14.0519 8.85691 14.1393C8.96904 14.7049 9.1692 15.2624 9.44421 15.719C9.6046 15.9853 9.77246 16.2217 9.93767 16.4167C10.0077 16.4993 10.0954 16.5483 10.164 16.6165C10.1677 17.2323 10.1781 17.7539 10.1264 18.4027C10.0158 18.6691 9.80616 18.9018 9.42875 19.1291C9.03467 19.3664 8.49466 19.5796 7.89428 19.7948C6.82772 20.177 5.56774 20.5607 4.53057 21.3138C2.4291 19.1731 1.13043 16.2413 1.13043 13C1.13043 6.43793 6.43793 1.13043 13 1.13043ZM12.9558 4.51843C13.9982 4.5195 14.654 4.82812 14.8336 5.14326L14.9716 5.38502L15.2465 5.42255C15.9565 5.52121 16.3532 5.79674 16.6375 6.18979C16.9217 6.58285 17.0795 7.13139 17.1276 7.74745C17.2239 8.97957 16.8712 10.4345 16.6474 11.1078L16.505 11.5351L16.8903 11.7691C16.8511 11.7452 17.0714 11.8757 17.0217 12.2891C16.9614 12.792 16.8328 13.0482 16.7468 13.1579C16.6607 13.2676 16.6239 13.2536 16.6331 13.2528L16.1672 13.2914L16.1175 13.7562C16.0749 14.1555 15.8503 14.7002 15.5876 15.1361C15.4563 15.3541 15.3166 15.5483 15.199 15.687C15.0815 15.8257 14.9564 15.9116 15.0037 15.8868L14.7012 16.0447V16.3869C14.7012 17.1354 14.6707 17.7475 14.7497 18.6191L14.7564 18.6941L14.7829 18.7648C15.0053 19.3634 15.4696 19.7857 15.9917 20.0983C16.5138 20.411 17.1127 20.637 17.7304 20.8567C18.7483 21.2189 19.8094 21.5754 20.6183 22.102C18.5573 23.8282 15.9027 24.8696 13 24.8696C10.0984 24.8696 7.44452 23.8292 5.38392 22.1042C6.19736 21.5806 7.26007 21.2232 8.27624 20.8589C8.89347 20.6377 9.49088 20.4108 10.0116 20.0972C10.5324 19.7837 10.995 19.3614 11.2171 18.7648L11.2436 18.6941L11.2503 18.6191C11.3287 17.7482 11.2988 17.136 11.2988 16.3869V16.0447L10.9963 15.8857C11.0437 15.9105 10.9185 15.8246 10.801 15.6859C10.6834 15.5472 10.5437 15.3542 10.4124 15.1361C10.1497 14.7 9.92509 14.1549 9.88247 13.7562L9.8328 13.2914L9.36693 13.2528C9.37566 13.2535 9.3392 13.2675 9.25323 13.1579C9.16725 13.0482 9.03891 12.7922 8.97835 12.2891C8.92894 11.8756 9.15175 11.7436 9.10971 11.7691L9.4685 11.5516L9.36362 11.1443C8.87728 9.27244 8.80373 7.56928 9.30401 6.42604C9.80379 5.28392 10.8049 4.55931 12.9558 4.51843Z" fill="#8E8E93"/>
</svg>
