<svg width="25" height="24" viewBox="0 0 25 24" fill="none" xmlns="http://www.w3.org/2000/svg">
<path d="M0 1.38254V0H15.8992V1.38254H0Z" fill="#8E8E93"/>
<path d="M0 4.83888V3.45635H15.8992V4.83888H0Z" fill="#8E8E93"/>
<path d="M0 6.91269V8.29523H9.67777V6.91269H0Z" fill="#8E8E93"/>
<path fill-rule="evenodd" clip-rule="evenodd" d="M8.29523 14.5167C8.29523 10.7066 11.3978 7.60396 15.2079 7.60396C19.018 7.60396 22.1206 10.7066 22.1206 14.5167C22.1206 16.1719 21.5401 17.6895 20.5653 18.8803L24.6913 23.0063L23.6976 24L19.5716 19.874C18.3807 20.8488 16.8632 21.4293 15.2079 21.4293C11.3978 21.4293 8.29523 18.3267 8.29523 14.5167ZM15.2079 8.98657C18.2701 8.98657 20.7381 11.4546 20.7381 14.5167C20.7381 17.5788 18.2701 20.0469 15.2079 20.0469C12.1458 20.0469 9.6778 17.5788 9.6778 14.5167C9.6778 11.4546 12.1458 8.98657 15.2079 8.98657Z" fill="#8E8E93"/>
<path d="M0 10.369V11.7516H6.91269V10.369H0Z" fill="#8E8E93"/>
</svg>
